<svg xmlns="http://www.w3.org/2000/svg" viewBox="0 0 19 17"><path d="M9.5 17c-.1 0-.2 0-.2-.1-.1-.1-2.3-1.3-4.6-3.3-1.3-1.2-2.4-2.4-3.2-3.7C.5 8.3 0 6.8 0 5.3 0 2.4 2.4 0 5.3 0c1 0 2 .4 2.9 1 .5.4 1 .9 1.3 1.4.3-.5.8-1 1.3-1.4.9-.7 2-1 2.9-1C16.6 0 19 2.4 19 5.3c0 1.5-.5 3.1-1.5 4.7-.8 1.2-1.8 2.5-3.2 3.7-2.3 2-4.5 3.3-4.6 3.3h-.2zM5.3 1C2.9 1 1 2.9 1 5.3c0 3 2.3 5.8 4.3 7.6 1.8 1.6 3.5 2.7 4.2 3.1.6-.4 2.4-1.5 4.2-3.1 2-1.8 4.3-4.5 4.3-7.6C18 2.9 16.1 1 13.8 1 12 1 10.4 2.4 10 3.7c-.1.2-.3.3-.5.3s-.4-.1-.5-.3C8.6 2.4 7 1 5.3 1z"/></svg>