<svg xmlns="http://www.w3.org/2000/svg" viewBox="0 0 20 20"><path d="M13.5 9C12.1 9 11 7.9 11 6.5S12.1 4 13.5 4 16 5.1 16 6.5 14.9 9 13.5 9zm0-4c-.8 0-1.5.7-1.5 1.5S12.7 8 13.5 8 15 7.3 15 6.5 14.3 5 13.5 5zM.5 20c-.1 0-.3-.1-.4-.1-.1-.2-.1-.4-.1-.6C1.6 15.1 3.2 13 4.8 13c.5 0 1.1.2 1.5.7.7.7.8 1.5.6 1.9-.3 1.5-2.5 3-6.3 4.4H.5zm4.3-6c-.5 0-1.1.4-1.7 1.3-.6.8-1.2 2-1.8 3.4 1.3-.5 2.4-1.1 3.2-1.6 1.1-.7 1.4-1.3 1.5-1.6s0-.7-.4-1c-.2-.4-.5-.5-.8-.5z"/><path d="M19.5 0c-2.6 0-4.9.4-6.9 1.3-1.6.7-3 1.7-4.1 3-.2.2-.4.5-.6.7-.8.1-1.7.4-2.6 1-.7.6-1.5 1.3-2.2 2.2-1.2 1.5-2 3-2 3.1-.1.2 0 .5.2.6 0 .1.1.1.2.1s.3 0 .4-.1c0 0 .5-.5 1.3-.9.7-.4 1.7-.8 3-.9.3.8 1.2 1.8 1.7 2.2.4.4 1.4 1.3 2.2 1.7-.1 1.3-.5 2.3-.9 3-.5.8-.9 1.3-.9 1.3-.3 0-.3.3-.2.5.1.1.2.2.4.2.1 0 .2 0 .2-.1.1 0 1.6-.8 3.1-2 .9-.7 1.6-1.5 2.2-2.2.6-.9 1-1.8 1-2.6.2-.2.5-.4.7-.6 1.3-1.1 2.3-2.5 3-4.1.9-2 1.3-4.3 1.3-6.9V0h-.5zM3.1 9.8c1-1.4 2.4-3.1 4.1-3.6-.7 1.1-1 2.2-1.1 2.8-1.2.1-2.2.4-3 .8zm7.1 7.1c.4-.8.7-1.8.8-2.9.7-.1 1.7-.5 2.8-1.1-.5 1.6-2.2 3-3.6 4zm4.8-6.1c-2 1.8-4.2 2.2-4.5 2.2 0 0-.2 0-.8-.4-.4-.3-.8-.7-1.3-1.1s-.8-.9-1.1-1.3C7 9.7 7 9.5 7 9.5 7 9.2 7.4 7 9.3 5c2.2-2.5 5.6-3.8 9.7-4-.1 4.2-1.5 7.6-4 9.8z"/></svg>