<svg id="Layer_1" xmlns="http://www.w3.org/2000/svg" xmlns:xlink="http://www.w3.org/1999/xlink" viewBox="0 0 409 307"><style>.st0{clip-path:url(#SVGID_2_);fill-rule:evenodd;clip-rule:evenodd}</style><defs><path id="SVGID_1_" d="M0 0h409v307H0z"/></defs><clipPath id="SVGID_2_"><use xlink:href="#SVGID_1_" overflow="visible"/></clipPath><path class="st0" d="M40.2 46.6c-4.4 0-8-3.6-8-8s3.6-8 8-8h18.3c4.4 0 8 3.6 8 8s-3.6 8-8 8H40.2zm199.2 259.1h132.9c10.1 0 19.2-4.1 25.8-10.7 6.6-6.6 10.7-15.8 10.7-25.8v-232c0-10.1-4.1-19.2-10.7-25.8C391.5 4.8 382.3.7 372.3.7H35.7C25.6.7 16.5 4.8 9.9 11.4 3.3 17.9-.8 27.1-.8 37.1v232c0 10.1 4.1 19.2 10.7 25.8 6.6 6.6 15.8 10.7 25.8 10.7h139.5c4.4 0 8-3.6 8-8s-3.6-8-8-8H35.7c-5.6 0-10.7-2.3-14.5-6-3.7-3.7-6-8.8-6-14.5V76.5h377.5v192.7c0 5.6-2.3 10.8-6 14.5-3.7 3.7-8.8 6-14.5 6H239.4c-4.4 0-8 3.6-8 8s3.6 8 8 8zm-32.1-16c4.4 0 8 3.6 8 8s-3.6 8-8 8-8-3.6-8-8c0-4.5 3.6-8 8-8zm8-63.2c0 4.4-3.6 8-8 8s-8-3.6-8-8v-31.7c0-4.4 3.6-8 8-8s8 3.6 8 8v31.7zm-37.7-75.4V120c0-3.2 1.3-6 3.4-8.1 2.1-2.1 5-3.4 8.1-3.4h36.4c3.2 0 6 1.3 8.1 3.4 2.1 2.1 3.4 5 3.4 8.1v31.1h-59.4zm75.5 1.4c3.2 1.2 6 3 8.4 5.4 4.2 4.2 6.8 10 6.8 16.4V247c0 6.4-2.6 12.2-6.8 16.4-4.2 4.2-10 6.8-16.4 6.8h-75.5c-6.4 0-12.2-2.6-16.4-6.8-4.2-4.2-6.8-10-6.8-16.4v-72.7c0-6.4 2.6-12.2 6.8-16.4 2.3-2.4 5.2-4.2 8.4-5.4V120c0-7.6 3.1-14.5 8.1-19.5s11.9-8.1 19.5-8.1h36.4c7.6 0 14.5 3.1 19.5 8.1s8.1 11.9 8.1 19.5l-.1 32.5zm-8 14.6c2 0 3.8.8 5 2.1 1.3 1.3 2.1 3.1 2.1 5V247c0 2-.8 3.8-2.1 5.1-1.3 1.3-3.1 2.1-5 2.1h-75.5c-2 0-3.8-.8-5-2.1-1.3-1.3-2.1-3.1-2.1-5.1v-72.7c0-2 .8-3.8 2.1-5 1.3-1.3 3.1-2.1 5-2.1h75.5zM372.3 16.6H35.7c-5.6 0-10.7 2.3-14.5 6-3.7 3.7-6 8.8-6 14.5v23.3h377.5V37.1c0-5.6-2.3-10.8-6-14.5-3.7-3.6-8.8-6-14.4-6zm-237.7 30c-4.4 0-8-3.6-8-8s3.6-8 8-8H153c4.4 0 8 3.6 8 8s-3.6 8-8 8h-18.4zm-47.2 0c-4.4 0-8-3.6-8-8s3.6-8 8-8h18.3c4.4 0 8 3.6 8 8s-3.6 8-8 8H87.4zm0 0"/></svg>