<svg xmlns="http://www.w3.org/2000/svg" viewBox="0 0 19 19"><path d="M9.5 19c-2.5 0-4.9-1-6.7-2.8S0 12 0 9.5s1-4.9 2.8-6.7S7 0 9.5 0s4.9 1 6.7 2.8S19 7 19 9.5s-1 4.9-2.8 6.7S12 19 9.5 19zm0-18C4.8 1 1 4.8 1 9.5S4.8 18 9.5 18 18 14.2 18 9.5 14.2 1 9.5 1z"/><path d="M6.5 7C5.7 7 5 6.3 5 5.5S5.7 4 6.5 4 8 4.7 8 5.5 7.3 7 6.5 7zm0-2c-.3 0-.5.2-.5.5s.2.5.5.5.5-.2.5-.5-.2-.5-.5-.5zM12.5 7c-.8 0-1.5-.7-1.5-1.5S11.7 4 12.5 4s1.5.7 1.5 1.5S13.3 7 12.5 7zm0-2c-.3 0-.5.2-.5.5s.2.5.5.5.5-.2.5-.5-.2-.5-.5-.5zM9.5 16C5.9 16 3 13.1 3 9.5c0-.3.2-.5.5-.5s.5.2.5.5c0 3 2.5 5.5 5.5 5.5S15 12.5 15 9.5c0-.3.2-.5.5-.5s.5.2.5.5c0 3.6-2.9 6.5-6.5 6.5z"/></svg>