<svg id="Layer_1" xmlns="http://www.w3.org/2000/svg" xmlns:xlink="http://www.w3.org/1999/xlink" viewBox="0 0 410 410"><style>.st0{clip-path:url(#SVGID_2_);fill-rule:evenodd;clip-rule:evenodd}</style><defs><path id="SVGID_1_" d="M0 0h410v410H0z"/></defs><clipPath id="SVGID_2_"><use xlink:href="#SVGID_1_" overflow="visible"/></clipPath><path class="st0" d="M256.1 391.4c-24.2 20-58.8 22.4-95.3 10.2-35.2-11.8-72.4-37.5-103.4-74.2-.2-.2-.4-.5-.6-.8-30.8-36.8-49.6-78-55.1-114.7-5.7-38.3 2.8-72.1 27-92.4l.2-.1c6-4.9 15.1-3.7 24.9 2.2 7.5 4.5 16.1 11.9 24 21.3.2.2.4.5.6.7 7.7 9.2 15.9 21.7 21.5 32.6 7.1 13.8 9.7 26.5 3.2 32-7.5 6.3-11.7 15.1-12.5 24.2-.8 9.1 1.9 18.5 8.1 26L132 298c6.3 7.5 15.1 11.7 24.2 12.5 9.1.8 18.5-1.9 26-8.1 6.6-5.5 18.5-.7 30.9 8.7 17.2 13.1 37.8 34.2 45.8 54.9 4 10.5 3.7 19.5-1.8 24.6-.3.2-.6.5-1 .8zm43.9-51.9c-3.9 2-5.4 6.9-3.4 10.9 2 4 6.9 5.7 10.8 3.7 25.9-13.1 48.3-32.1 65.4-55.2 23.1-31.1 36.8-69.5 36.8-111.2 0-51.5-20.9-98.1-54.6-131.8-33.7-33.8-80.4-54.7-131.8-54.7-35.8 0-69.3 10.1-97.8 27.7-20 12.4-37.6 28.5-51.7 47.4-6 8 6.9 17.9 13 9.7 12.9-17.2 28.9-32 47.3-43.3 25.9-16 56.5-25.2 89.2-25.2 47 0 89.5 19 120.3 49.8 30.8 30.8 49.8 73.3 49.8 120.3 0 38.1-12.5 73.2-33.5 101.5-15.7 21.1-36.2 38.4-59.8 50.4zm-25.8 11c4.4 0 8 3.6 8 8s-3.6 8-8 8-8-3.6-8-8 3.6-8 8-8zM63.5 99.9c-4.4 0-8 3.6-8 8s3.6 8 8 8 8-3.6 8-8-3.6-8-8-8zm271.3 131.9c0 4.5-3.7 8.2-8.2 8.2-4.5 0-8.2-3.7-8.2-8.2v-36h-42c-1.8 0-3.7-.6-5.2-1.9-3.4-2.9-3.9-8-1.1-11.4l49.7-59.6c1.5-2.1 3.9-3.5 6.7-3.5 4.5 0 8.2 3.7 8.2 8.2v52h9.9c4.5 0 8.2 3.7 8.2 8.2 0 4.5-3.7 8.2-8.2 8.2h-9.9v35.8zm-16.3-52.3h-24.6l24.6-29.6v29.6zm-118.2-20c0-6.6 2.7-12.6 7-16.9 4.3-4.3 10.3-7 16.9-7 6.6 0 12.6 2.7 16.9 7 4.3 4.3 7 10.3 7 16.9 0 6.3-2.4 10.9-6.4 14.8-4.8 4.6-12.1 8.5-20.6 12.7-20.5 10.2-36.2 41-36.2 41-2.1 4-.5 8.9 3.5 11 1.2.6 2.5.9 3.7.9h64.2c4.5 0 8.2-3.7 8.2-8.2 0-4.5-3.7-8.2-8.2-8.2h-49.8c5.4-7.9 13.3-17.7 21.9-22 9.6-4.8 18.1-9.4 24.6-15.5 7.2-6.9 11.6-15.1 11.6-26.5 0-11.1-4.5-21.2-11.8-28.5-7.3-7.3-17.4-11.8-28.5-11.8-11.1 0-21.2 4.5-28.5 11.8-7.3 7.3-11.8 17.4-11.8 28.5 0 4.5 3.7 8.2 8.2 8.2 4.5 0 8.1-3.6 8.1-8.2zM166 386.1c31.3 10.5 60.5 8.8 80-7.6.1-.1-.9-2.6-2.4-6.8-6.8-17.6-25.9-36.8-40.4-47.8-6.5-4.9-12.2-7.9-12.6-7.5-10.9 9.2-22.7 11.4-35.9 10.3-13.3-1.2-26.1-7.4-35.3-18.3l-33.2-39.6c-9.2-10.9-13.1-24.6-11.9-37.9 1.2-13.2 6.4-25.2 17.3-34.4-4.4-13.8-22.9-39-26.1-42.8-6.8-8.2-14-14.5-20.2-18.2-3.6-2.2-6-3.5-6.2-3.6l-.3.3C19.6 148.7 13 177 17.9 209.5c5.1 34.1 22.8 72.4 51.8 107 29 34.6 63.7 58.7 96.3 69.6zm0 0"/></svg>