<svg id="Layer_1" xmlns="http://www.w3.org/2000/svg" xmlns:xlink="http://www.w3.org/1999/xlink" viewBox="0 0 410 361"><style>.st0{clip-path:url(#SVGID_2_);fill-rule:evenodd;clip-rule:evenodd}</style><defs><path id="SVGID_1_" d="M0 0h410v361H0z"/></defs><clipPath id="SVGID_2_"><use xlink:href="#SVGID_1_" overflow="visible"/></clipPath><path class="st0" d="M38.7 186.4c-1.4 1.4-3.4 2.2-5.5 2.2-2.6 0-5-1.3-6.4-3.2L1.9 155.7c-2.8-3.4-2.4-8.4 1-11.3 3.4-2.8 8.4-2.4 11.3 1L26.4 160c4.7-41.4 23.5-78.4 51.4-106.4C110.3 21.1 155.2 1 204.8 1c42.5 0 81.6 14.8 112.4 39.5 31.4 25.2 54.1 60.7 63 101.4.9 4.3-1.8 8.6-6.1 9.5-4.3.9-8.6-1.8-9.5-6.1-8.1-37.1-28.8-69.4-57.4-92.4-28-22.5-63.6-36-102.4-36-45.2 0-86.1 18.3-115.7 47.9-25.6 25.6-42.8 59.7-46.9 97.7l15.9-13.4c3.4-2.8 8.4-2.4 11.3 1 2.8 3.4 2.4 8.4-1 11.3l-29.7 25zm109.1-22.3l-8.7-26.7h41.7c4.4 0 8-3.6 8-8s-3.6-8-8-8h-46.9l-8-24.6c-1.1-3.4-4.2-5.5-7.6-5.5h-30c-4.4 0-8 3.6-8 8s3.6 8 8 8h24.2c14.4 44 28.7 88 43.1 131.9-5.7 1.2-10.8 4-14.8 8-5.3 5.3-8.6 12.6-8.6 20.7s3.3 15.4 8.6 20.7c5.3 5.3 12.6 8.6 20.7 8.6s15.4-3.3 20.7-8.6c5.3-5.3 8.6-12.6 8.6-20.7 0-4.7-1.1-9.2-3.1-13.2h55.7c-2 4-3.2 8.4-3.2 13.2 0 8.1 3.3 15.4 8.6 20.7 5.3 5.3 12.6 8.6 20.7 8.6s15.4-3.3 20.7-8.6c5.3-5.3 8.6-12.6 8.6-20.7 0-8-3.3-15.3-8.6-20.6-5.4-5.4-13-8.6-20.7-8.6h-97.1l-4.6-14.1h101.7c3.4 0 6.5-2.2 7.6-5.5l28.2-86.5c.4-.9.6-1.9.6-3 0-4.4-3.6-8-8-8h-52.7c-4.4 0-8 3.6-8 8s3.6 8 8 8h41.7l-8.7 26.7H147.8zm124.9 16H153.1l9.2 28.3h101.1l9.3-28.3zm-59.8-58.7c-4.4 0-8 3.6-8 8s3.6 8 8 8 8-3.6 8-8-3.6-8-8-8zm56.9 133.2c3.4.1 6.5 1.6 8.8 3.9 2.4 2.4 3.9 5.7 3.9 9.3 0 3.6-1.5 6.9-3.9 9.3-2.4 2.4-5.7 3.9-9.3 3.9s-6.9-1.5-9.3-3.9c-2.4-2.4-3.9-5.7-3.9-9.3 0-3.7 1.5-7 3.9-9.3 2.2-2.2 5.1-3.6 8.4-3.8.5-.1.8-.1 1.4-.1zm-99.1 3.9c2.4 2.4 3.9 5.7 3.9 9.3 0 3.6-1.5 6.9-3.9 9.3-2.4 2.4-5.7 3.9-9.3 3.9-3.6 0-6.9-1.5-9.3-3.9-2.4-2.4-3.9-5.7-3.9-9.3 0-3.6 1.5-6.9 3.9-9.3 2.4-2.4 5.7-3.9 9.3-3.9 3.7 0 7 1.5 9.3 3.9zM351.5 212l15.9-13.4c-4.2 38-21.3 72-46.9 97.7-29.6 29.6-70.5 47.9-115.7 47.9-38.8 0-74.4-13.5-102.4-36-28.6-23-49.3-55.3-57.4-92.4-.9-4.3-5.2-7.1-9.5-6.1-4.3.9-7.1 5.2-6.1 9.5 8.9 40.7 31.7 76.2 63 101.4 30.8 24.7 69.9 39.5 112.4 39.5 49.6 0 94.5-20.1 127-52.6 27.9-27.9 46.7-65 51.4-106.4l12.2 14.6c2.8 3.4 7.9 3.8 11.3 1 3.4-2.8 3.8-7.9 1-11.3l-24.9-29.7c-1.5-2-3.8-3.2-6.4-3.2-2.1 0-4.1.8-5.5 2.2l-29.7 24.9c-3.4 2.8-3.8 7.9-1 11.3 2.8 3.4 7.9 3.9 11.3 1.1zm0 0"/></svg>