<svg xmlns="http://www.w3.org/2000/svg" viewBox="0 0 20 20"><path d="M16 20c-1.8 0-3.7-.5-5.6-1.5-1.8-.9-3.6-2.2-5.1-3.8s-2.9-3.3-3.8-5.1C.5 7.7 0 5.8 0 4c0-1.1 1.1-2.3 1.5-2.7C2.2.7 3.2 0 4 0c.4 0 .8.2 1.4.8.4.4.9.9 1.4 1.5.2.4 1.7 2.3 1.7 3.2 0 .7-.8 1.3-1.7 1.8-.4.2-.8.4-1 .7-.3.2-.3.3-.3.3.9 2.4 3.8 5.3 6.2 6.2 0 0 .1-.1.4-.3.2-.3.4-.6.6-1 .6-.9 1.1-1.7 1.8-1.7.9 0 2.8 1.4 3.2 1.7.6.5 1.1 1 1.5 1.4.5.6.8 1 .8 1.4 0 .8-.7 1.8-1.3 2.5-.5.4-1.6 1.5-2.7 1.5zM4 1c-.3 0-1 .3-1.8 1.1C1.5 2.7 1 3.5 1 4c0 6.7 8.3 15 15 15 .5 0 1.3-.5 1.9-1.2.8-.8 1.1-1.5 1.1-1.8 0-.2-.6-.9-2-2-1.2-1-2.2-1.5-2.5-1.5 0 0-.1 0-.4.3l-.6.9c-.6.9-1.1 1.8-1.9 1.8-.1 0-.2 0-.4-.1-2.6-1.1-5.7-4.2-6.8-6.8 0-.2 0-.7.6-1.3.3-.3.8-.6 1.2-.8.4-.2.7-.5 1-.7.3-.2.3-.3.3-.4C7.5 5.2 7 4.2 6 3 4.9 1.6 4.2 1 4 1z"/></svg>