<svg xmlns="http://www.w3.org/2000/svg" viewBox="0 0 19 19"><path d="M16.3 16.1C18 14.3 19 12 19 9.5c0-2.4-.9-4.6-2.4-6.4l.7-.7.6.6c.1.1.2.1.4.1s.3 0 .4-.1c.2-.2.2-.5 0-.7l-2-2c-.2-.2-.5-.2-.7 0s-.2.5 0 .7l.6.6-.7.7C14.1.9 11.9 0 9.5 0S4.9.9 3.1 2.4l-.6-.6.6-.6c.2-.2.2-.5 0-.7s-.5-.2-.7 0l-2 2c-.2.2-.2.5 0 .7.1.1.2.1.4.1s.3 0 .4-.1l.6-.6.7.7C.9 4.9 0 7.1 0 9.5c0 2.5 1 4.8 2.7 6.6l-2 2c-.2.2-.2.5 0 .7 0 .2.2.2.3.2s.3 0 .4-.1l2.1-2.1c1.6 1.4 3.8 2.2 6 2.2s4.4-.8 6.1-2.2l2.1 2.1c0 .1.2.1.3.1s.3 0 .4-.1c.2-.2.2-.5 0-.7l-2.1-2.1zM1 9.5C1 4.8 4.8 1 9.5 1S18 4.8 18 9.5 14.2 18 9.5 18 1 14.2 1 9.5z"/><path d="M15.1 6.3c-.1-.3-.4-.4-.7-.2L9.5 8.9 5.7 6.2c-.2-.1-.5-.1-.7.1s-.1.6.1.7l4.1 2.9H9.5l5.2-3c.5-.1.6-.4.4-.6z"/></svg>