<svg id="Layer_1" xmlns="http://www.w3.org/2000/svg" xmlns:xlink="http://www.w3.org/1999/xlink" viewBox="0 0 410 330"><style>.st0{clip-path:url(#SVGID_2_);fill-rule:evenodd;clip-rule:evenodd}</style><defs><path id="SVGID_1_" d="M0 0h410v330H0z"/></defs><clipPath id="SVGID_2_"><use xlink:href="#SVGID_1_" overflow="visible"/></clipPath><path class="st0" d="M40.7 293.4H21.4c-5.9 0-11.2-2.4-15.1-6.3C2.4 283.2 0 277.9 0 272V74.6c0-5.9 2.4-11.2 6.3-15.1 3.9-3.9 9.2-6.3 15.1-6.3h35.5c4.6-8.6 10.5-16.4 17.3-23.2C92.4 11.8 117.6.5 145.4.5c27.8 0 53 11.3 71.2 29.5 6.8 6.8 12.7 14.6 17.3 23.2h35.5c5.9 0 11.2 2.4 15.1 6.3 3.9 3.9 6.3 9.2 6.3 15.1v54.7H345c9.3 0 18.1 3.8 25.2 9.7 7.2 6 12.7 14.5 15.1 23.5 7.7 29.7 15.4 59.3 23.1 89 .7 2.6 1.1 5 1.3 7.2.7 8.5-1.6 15.8-6 21.6-4.3 5.7-10.7 9.8-18.4 11.8-.2.1-.5.1-.7.2-1.5 9.3-5.9 17.6-12.3 24-7.9 7.9-18.8 12.8-30.9 12.8-12.1 0-23-4.9-30.9-12.8-6.1-6.1-10.4-14-12.1-22.9H126.7c-1.6 8.9-6 16.8-12.1 22.9-7.9 7.9-18.8 12.8-30.9 12.8-12.1 0-23-4.9-30.9-12.8-6.1-6.2-10.4-14.1-12.1-22.9zM145.4 186c-4.4 0-8 3.6-8 8s3.6 8 8 8 8-3.6 8-8-3.6-8-8-8zm-23.3 5.4c-1.5 4.2-5.9 6.4-9.9 5-14.4-5-27.4-13.3-37.9-23.9-18.2-18.2-29.5-43.4-29.5-71.2 0-11.2 1.8-21.9 5.2-32H21.4c-1.5 0-2.8.6-3.8 1.6S16 73.2 16 74.7V272c0 1.5.6 2.8 1.6 3.7 1 1 2.3 1.6 3.8 1.6h19.4c1.6-8.9 5.9-16.8 12.1-22.9 7.9-7.9 18.8-12.8 30.9-12.8 12.1 0 23 4.9 30.9 12.8 6.1 6.1 10.4 14 12.1 22.9h148.1V74.6c0-1.5-.6-2.8-1.6-3.8s-2.3-1.6-3.7-1.6h-28.5c3.4 10 5.2 20.8 5.2 32 0 27.8-11.3 53-29.5 71.2-10.3 10.3-22.9 18.4-36.9 23.5-4.1 1.5-8.3-1.1-9.8-5-1.5-4.2.4-8.7 4.3-10.1 11.8-4.3 22.3-11.1 31-19.8 15.3-15.3 24.8-36.5 24.8-59.9s-9.5-44.5-24.8-59.9c-15.3-15.3-36.5-24.8-59.9-24.8S101 25.9 85.6 41.2c-15.3 15.3-24.8 36.5-24.8 59.9s9.5 44.5 24.8 59.9c8.9 8.9 19.8 15.8 31.9 20.1 3.9 1.5 6 6.1 4.6 10.3zM132 41.1v60.2c0 4.4 3.6 8 8 8h36.3c4.4 0 8-3.6 8-8s-3.6-8-8-8H148V41.1c0-4.4-3.6-8-8-8s-8 3.6-8 8zm251.9 234.6c2.9-1.2 5.3-2.9 6.9-5 2.1-2.7 3.1-6.3 2.7-10.7-.1-1.5-.4-3-.8-4.5l-12-46.4h-90v68.3h7.5c1.6-8.9 5.9-16.8 12.1-22.9 7.9-7.9 18.8-12.8 30.9-12.8 12.1 0 23 4.9 30.9 12.8 5.8 5.7 9.9 13 11.8 21.2zm-23.1-9.9c-5-5-11.9-8.1-19.6-8.1s-14.6 3.1-19.6 8.1c-5 5-8.1 11.9-8.1 19.6 0 7.6 3.1 14.5 8.1 19.6 5 5 11.9 8.1 19.6 8.1s14.6-3.1 19.6-8.1c5-5 8.1-11.9 8.1-19.6 0-7.7-3.1-14.6-8.1-19.6zm-257.5 0c-5-5-11.9-8.1-19.6-8.1-7.6 0-14.6 3.1-19.6 8.1-5 5-8.1 11.9-8.1 19.6 0 7.6 3.1 14.5 8.1 19.6 5 5 11.9 8.1 19.6 8.1 7.6 0 14.6-3.1 19.6-8.1 5-5 8.1-11.9 8.1-19.6 0-7.7-3.1-14.6-8.1-19.6zM290.8 193h85.8l-6.9-26.5c-1.5-5.8-5.1-11.2-9.9-15.2-4.3-3.6-9.6-5.9-14.9-5.9h-54.2V193zm0 0"/></svg>